<svg version="1.2" baseProfile="tiny" id="Layer_1" xmlns="http://www.w3.org/2000/svg" xmlns:xlink="http://www.w3.org/1999/xlink" x="0px" y="0px" viewBox="0 0 500 500" overflow="visible" xml:space="preserve">
<linearGradient id="SVGID_1_" gradientUnits="userSpaceOnUse" x1="10" y1="250" x2="490" y2="250">
<stop offset="0" style="stop-color: rgb(252, 72, 41);" id="id_103"></stop>
<stop offset="1" style="stop-color: rgb(252, 192, 41);" id="id_104"></stop>
</linearGradient>
<path fill="url(#SVGID_1_)" d="M410,479.8H90c-44.2,0-80-35.8-80-80V100.2c0-44.2,35.8-80,80-80h320c44.2,0,80,35.8,80,80v299.7
	C490,444,454.2,479.8,410,479.8z" id="id_101"></path>
<path fill="#FFFFFF" d="M250.7,399.8c-198.2-7.1-198.2-292.8,0-299.9c33.9-1.8,135.7,30.3,101.8,76.8c-10.7,10.7-26.8,12.5-37.5,1.8
	l0,0c-39.3-35.7-101.8-32.1-135.7,8.9c-16.1,17.9-23.2,39.3-25,62.5c1.8,112.5,158.9,132.1,189.2,26.8h-83.9
	c-14.3,0-26.8-12.5-26.8-26.8c0-14.3,12.5-26.8,26.8-26.8h114.3c14.3,0,26.8,12.5,26.8,26.8l0,0C402.4,332,334.6,399.8,250.7,399.8
	L250.7,399.8z" id="id_102"></path>
</svg>